G04 Layer_Color=13813960*
%FSAX24Y24*%
%MOIN*%
G70*
G01*
G75*
%ADD33C,0.0100*%
%ADD45C,0.0050*%
%ADD46C,0.0080*%
D33*
X002283Y004675D02*
Y004175D01*
X002183Y004075D01*
X001984D01*
X001884Y004175D01*
Y004675D01*
X001284Y004075D02*
X001684D01*
X001284Y004475D01*
Y004575D01*
X001384Y004675D01*
X001584D01*
X001684Y004575D01*
D45*
X000311Y000130D02*
Y001130D01*
Y000130D02*
X003311D01*
Y001130D01*
X000311D02*
X003311D01*
D46*
X000336Y002671D02*
X000386Y002621D01*
Y002521D01*
X000336Y002471D01*
X000136D01*
X000086Y002521D01*
Y002621D01*
X000136Y002671D01*
X000336Y002971D02*
X000386Y002921D01*
Y002821D01*
X000336Y002771D01*
X000286D01*
X000236Y002821D01*
Y002921D01*
X000186Y002971D01*
X000136D01*
X000086Y002921D01*
Y002821D01*
X000136Y002771D01*
X000086Y003071D02*
X000386D01*
X000086Y003271D01*
X000386D01*
X000782Y002671D02*
X000832Y002621D01*
Y002521D01*
X000782Y002471D01*
X000582D01*
X000532Y002521D01*
Y002621D01*
X000582Y002671D01*
X000682D01*
Y002571D01*
X000832Y002771D02*
X000532D01*
Y002921D01*
X000582Y002971D01*
X000782D01*
X000832Y002921D01*
Y002771D01*
Y003221D02*
Y003121D01*
X000782Y003071D01*
X000582D01*
X000532Y003121D01*
Y003221D01*
X000582Y003271D01*
X000782D01*
X000832Y003221D01*
X000782Y003371D02*
X000832Y003421D01*
Y003521D01*
X000782Y003571D01*
X000582D01*
X000532Y003521D01*
Y003421D01*
X000582Y003371D01*
X000782D01*
X001227Y002671D02*
X001277Y002621D01*
Y002521D01*
X001227Y002471D01*
X001028D01*
X000978Y002521D01*
Y002621D01*
X001028Y002671D01*
X001128D01*
Y002571D01*
X001277Y002771D02*
X000978D01*
Y002921D01*
X001028Y002971D01*
X001227D01*
X001277Y002921D01*
Y002771D01*
Y003221D02*
Y003121D01*
X001227Y003071D01*
X001028D01*
X000978Y003121D01*
Y003221D01*
X001028Y003271D01*
X001227D01*
X001277Y003221D01*
X000978Y003571D02*
Y003371D01*
X001178Y003571D01*
X001227D01*
X001277Y003521D01*
Y003421D01*
X001227Y003371D01*
X002119Y002671D02*
X002169Y002621D01*
Y002521D01*
X002119Y002471D01*
X002069D01*
X002019Y002521D01*
Y002621D01*
X001969Y002671D01*
X001919D01*
X001869Y002621D01*
Y002521D01*
X001919Y002471D01*
X002119Y002971D02*
X002169Y002921D01*
Y002821D01*
X002119Y002771D01*
X001919D01*
X001869Y002821D01*
Y002921D01*
X001919Y002971D01*
X002169Y003071D02*
X001869D01*
Y003271D01*
X002169Y003371D02*
X001869D01*
X001969D01*
X002169Y003571D01*
X002019Y003421D01*
X001869Y003571D01*
X001673Y002671D02*
X001723Y002621D01*
Y002521D01*
X001673Y002471D01*
X001623D01*
X001573Y002521D01*
Y002621D01*
X001523Y002671D01*
X001473D01*
X001423Y002621D01*
Y002521D01*
X001473Y002471D01*
X001723Y002921D02*
Y002821D01*
X001673Y002771D01*
X001473D01*
X001423Y002821D01*
Y002921D01*
X001473Y002971D01*
X001673D01*
X001723Y002921D01*
X002565Y002671D02*
X002615Y002621D01*
Y002521D01*
X002565Y002471D01*
X002515D01*
X002465Y002521D01*
Y002621D01*
X002415Y002671D01*
X002365D01*
X002315Y002621D01*
Y002521D01*
X002365Y002471D01*
X002615Y002771D02*
Y002871D01*
Y002821D01*
X002315D01*
Y002771D01*
Y002871D01*
X003060Y002471D02*
X002860D01*
X002760Y002571D01*
X002860Y002671D01*
X003060D01*
Y002771D02*
X002760D01*
Y002921D01*
X002810Y002971D01*
X003010D01*
X003060Y002921D01*
Y002771D01*
Y003071D02*
X002760D01*
Y003221D01*
X002810Y003271D01*
X003010D01*
X003060Y003221D01*
Y003071D01*
X003456Y002671D02*
X003506Y002621D01*
Y002521D01*
X003456Y002471D01*
X003256D01*
X003206Y002521D01*
Y002621D01*
X003256Y002671D01*
X003356D01*
Y002571D01*
X003206Y002771D02*
X003506D01*
X003206Y002971D01*
X003506D01*
Y003071D02*
X003206D01*
Y003221D01*
X003256Y003271D01*
X003456D01*
X003506Y003221D01*
Y003071D01*
M02*
