G04 Layer_Color=15132400*
%FSAX24Y24*%
%MOIN*%
G70*
G01*
G75*
%ADD30C,0.0098*%
%ADD31C,0.0236*%
%ADD32C,0.0079*%
%ADD33C,0.0100*%
G36*
X013303Y011132D02*
X013256D01*
Y011358D01*
Y011359D01*
Y011362D01*
Y011365D01*
X013256Y011370D01*
Y011371D01*
Y011371D01*
X013257Y011374D01*
Y011378D01*
X013257Y011383D01*
X013151Y011187D01*
X013151Y011186D01*
X013150Y011185D01*
X013149Y011183D01*
X013146Y011181D01*
X013143Y011179D01*
X013140Y011177D01*
X013136Y011176D01*
X013132Y011175D01*
X013122D01*
X013119Y011176D01*
X013117Y011177D01*
X013114Y011178D01*
X013111Y011180D01*
X013108Y011183D01*
X013105Y011187D01*
X012997Y011384D01*
Y011383D01*
Y011383D01*
X012998Y011380D01*
X012998Y011376D01*
Y011371D01*
Y011370D01*
Y011370D01*
X012999Y011366D01*
Y011362D01*
Y011358D01*
Y011132D01*
X012951D01*
Y011462D01*
X012996D01*
X012999Y011462D01*
X013002Y011461D01*
X013003D01*
X013005Y011459D01*
X013007Y011457D01*
X013008Y011455D01*
X013010Y011453D01*
X013116Y011261D01*
Y011260D01*
X013116Y011260D01*
X013118Y011257D01*
X013120Y011252D01*
X013122Y011247D01*
Y011247D01*
X013123Y011246D01*
X013124Y011243D01*
X013126Y011238D01*
X013128Y011233D01*
Y011233D01*
X013129Y011234D01*
X013129Y011236D01*
X013130Y011237D01*
X013132Y011243D01*
X013134Y011248D01*
Y011248D01*
X013134Y011249D01*
X013136Y011252D01*
X013138Y011256D01*
X013140Y011261D01*
X013245Y011453D01*
Y011454D01*
X013245Y011454D01*
X013247Y011457D01*
X013249Y011459D01*
X013250Y011460D01*
X013252Y011461D01*
X013253Y011461D01*
X013255Y011462D01*
X013258Y011462D01*
X013303D01*
Y011132D01*
D02*
G37*
G36*
X011830Y011339D02*
X011960D01*
Y011286D01*
X011830D01*
Y011148D01*
X011773D01*
Y011286D01*
X011643D01*
Y011339D01*
X011773D01*
Y011476D01*
X011830D01*
Y011339D01*
D02*
G37*
G36*
X012506Y011462D02*
X012514Y011461D01*
X012522Y011460D01*
X012531Y011459D01*
X012541Y011457D01*
X012550Y011455D01*
X012551D01*
X012551Y011454D01*
X012554Y011453D01*
X012558Y011452D01*
X012564Y011449D01*
X012570Y011446D01*
X012577Y011442D01*
X012583Y011438D01*
X012590Y011433D01*
X012590Y011433D01*
X012592Y011431D01*
X012595Y011428D01*
X012598Y011424D01*
X012602Y011419D01*
X012606Y011413D01*
X012609Y011407D01*
X012613Y011400D01*
X012613Y011399D01*
X012614Y011397D01*
X012615Y011393D01*
X012617Y011388D01*
X012618Y011382D01*
X012619Y011375D01*
X012620Y011366D01*
X012620Y011358D01*
Y011358D01*
Y011357D01*
Y011354D01*
X012620Y011350D01*
X012619Y011344D01*
X012618Y011337D01*
X012617Y011330D01*
X012615Y011322D01*
X012612Y011314D01*
X012612Y011313D01*
X012611Y011311D01*
X012609Y011308D01*
X012606Y011303D01*
X012603Y011298D01*
X012599Y011292D01*
X012594Y011286D01*
X012589Y011281D01*
X012588Y011280D01*
X012586Y011279D01*
X012582Y011276D01*
X012578Y011273D01*
X012572Y011270D01*
X012565Y011266D01*
X012557Y011262D01*
X012549Y011259D01*
X012548D01*
X012548Y011258D01*
X012545Y011258D01*
X012540Y011256D01*
X012533Y011255D01*
X012525Y011254D01*
X012516Y011252D01*
X012505Y011252D01*
X012494Y011251D01*
X012445D01*
Y011132D01*
X012391D01*
Y011462D01*
X012502D01*
X012506Y011462D01*
D02*
G37*
G36*
X012786D02*
X012794Y011461D01*
X012802Y011460D01*
X012811Y011459D01*
X012821Y011457D01*
X012830Y011455D01*
X012831D01*
X012831Y011454D01*
X012834Y011453D01*
X012838Y011452D01*
X012844Y011449D01*
X012850Y011446D01*
X012857Y011442D01*
X012863Y011438D01*
X012870Y011433D01*
X012870Y011433D01*
X012872Y011431D01*
X012875Y011428D01*
X012878Y011424D01*
X012882Y011419D01*
X012886Y011413D01*
X012889Y011407D01*
X012893Y011400D01*
X012893Y011399D01*
X012894Y011397D01*
X012895Y011393D01*
X012897Y011388D01*
X012898Y011382D01*
X012899Y011375D01*
X012900Y011366D01*
X012900Y011358D01*
Y011358D01*
Y011357D01*
Y011354D01*
X012900Y011350D01*
X012899Y011344D01*
X012898Y011337D01*
X012897Y011330D01*
X012895Y011322D01*
X012892Y011314D01*
X012892Y011313D01*
X012891Y011311D01*
X012889Y011308D01*
X012886Y011303D01*
X012883Y011298D01*
X012879Y011292D01*
X012874Y011286D01*
X012869Y011281D01*
X012868Y011280D01*
X012866Y011279D01*
X012862Y011276D01*
X012858Y011273D01*
X012852Y011270D01*
X012845Y011266D01*
X012837Y011262D01*
X012829Y011259D01*
X012828D01*
X012828Y011258D01*
X012825Y011258D01*
X012820Y011256D01*
X012813Y011255D01*
X012805Y011254D01*
X012796Y011252D01*
X012785Y011252D01*
X012774Y011251D01*
X012725D01*
Y011132D01*
X012671D01*
Y011462D01*
X012782D01*
X012786Y011462D01*
D02*
G37*
G36*
X013487Y013691D02*
X013430D01*
Y013966D01*
Y013967D01*
Y013970D01*
Y013974D01*
X013430Y013980D01*
Y013981D01*
Y013981D01*
X013431Y013985D01*
Y013990D01*
X013432Y013996D01*
X013303Y013758D01*
X013302Y013757D01*
X013302Y013755D01*
X013300Y013753D01*
X013297Y013751D01*
X013294Y013748D01*
X013290Y013746D01*
X013285Y013744D01*
X013279Y013744D01*
X013268D01*
X013264Y013744D01*
X013261Y013745D01*
X013258Y013747D01*
X013254Y013750D01*
X013250Y013753D01*
X013247Y013758D01*
X013116Y013997D01*
Y013996D01*
Y013995D01*
X013116Y013992D01*
X013117Y013987D01*
Y013981D01*
Y013980D01*
Y013979D01*
X013118Y013976D01*
Y013971D01*
Y013966D01*
Y013691D01*
X013060D01*
Y014092D01*
X013114D01*
X013118Y014091D01*
X013122Y014090D01*
X013123D01*
X013125Y014088D01*
X013128Y014086D01*
X013129Y014083D01*
X013131Y014081D01*
X013260Y013848D01*
Y013847D01*
X013261Y013846D01*
X013263Y013843D01*
X013265Y013837D01*
X013268Y013831D01*
Y013830D01*
X013268Y013830D01*
X013270Y013826D01*
X013272Y013820D01*
X013275Y013814D01*
Y013814D01*
X013276Y013815D01*
X013276Y013817D01*
X013277Y013819D01*
X013279Y013825D01*
X013282Y013831D01*
Y013832D01*
X013282Y013833D01*
X013284Y013837D01*
X013287Y013842D01*
X013290Y013848D01*
X013417Y014081D01*
Y014082D01*
X013417Y014082D01*
X013419Y014085D01*
X013422Y014088D01*
X013423Y014090D01*
X013425Y014090D01*
X013426Y014091D01*
X013428Y014091D01*
X013433Y014092D01*
X013487D01*
Y013691D01*
D02*
G37*
G36*
X012839Y014091D02*
X012848Y014091D01*
X012858Y014090D01*
X012869Y014088D01*
X012881Y014086D01*
X012892Y014083D01*
X012893D01*
X012894Y014083D01*
X012897Y014082D01*
X012902Y014080D01*
X012909Y014078D01*
X012917Y014074D01*
X012925Y014070D01*
X012932Y014066D01*
X012939Y014060D01*
X012940Y014060D01*
X012943Y014058D01*
X012946Y014055D01*
X012950Y014051D01*
X012954Y014045D01*
X012959Y014039D01*
X012963Y014032D01*
X012967Y014025D01*
X012967Y014024D01*
X012968Y014021D01*
X012969Y014017D01*
X012971Y014011D01*
X012973Y014004D01*
X012974Y013996D01*
X012975Y013987D01*
X012975Y013978D01*
Y013978D01*
Y013974D01*
Y013971D01*
X012975Y013966D01*
X012974Y013960D01*
X012973Y013953D01*
X012969Y013939D01*
Y013939D01*
X012968Y013936D01*
X012967Y013933D01*
X012965Y013929D01*
X012962Y013923D01*
X012959Y013917D01*
X012951Y013906D01*
X012951Y013906D01*
X012949Y013904D01*
X012947Y013901D01*
X012943Y013898D01*
X012939Y013893D01*
X012934Y013889D01*
X012928Y013885D01*
X012922Y013880D01*
X012921Y013880D01*
X012919Y013879D01*
X012915Y013877D01*
X012911Y013874D01*
X012905Y013872D01*
X012898Y013869D01*
X012891Y013866D01*
X012882Y013864D01*
X012883D01*
X012884Y013862D01*
X012887Y013861D01*
X012890Y013859D01*
X012897Y013852D01*
X012904Y013844D01*
X013012Y013691D01*
X012951D01*
X012947Y013692D01*
X012944Y013693D01*
X012940Y013694D01*
X012936Y013697D01*
X012932Y013700D01*
X012928Y013704D01*
X012835Y013839D01*
Y013839D01*
X012834Y013840D01*
X012832Y013843D01*
X012828Y013846D01*
X012824Y013849D01*
X012823Y013850D01*
X012820Y013851D01*
X012815Y013852D01*
X012808Y013852D01*
X012772D01*
Y013691D01*
X012706D01*
Y014092D01*
X012834D01*
X012839Y014091D01*
D02*
G37*
G36*
X010890Y011286D02*
X010708D01*
Y011351D01*
X010890D01*
Y011286D01*
D02*
G37*
%LPC*%
G36*
X012824Y014041D02*
X012772D01*
Y013900D01*
X012827D01*
X012831Y013900D01*
X012836D01*
X012842Y013901D01*
X012849Y013902D01*
X012862Y013905D01*
X012863D01*
X012865Y013906D01*
X012868Y013908D01*
X012872Y013909D01*
X012881Y013914D01*
X012890Y013920D01*
X012891Y013921D01*
X012892Y013922D01*
X012894Y013924D01*
X012896Y013927D01*
X012899Y013930D01*
X012902Y013934D01*
X012907Y013944D01*
Y013944D01*
X012907Y013946D01*
X012908Y013948D01*
X012910Y013952D01*
X012910Y013957D01*
X012912Y013962D01*
X012912Y013973D01*
Y013974D01*
Y013974D01*
Y013976D01*
X012912Y013979D01*
X012911Y013984D01*
X012910Y013992D01*
X012907Y014000D01*
X012903Y014008D01*
X012897Y014017D01*
X012890Y014023D01*
X012889Y014024D01*
X012886Y014026D01*
X012881Y014029D01*
X012874Y014032D01*
X012865Y014035D01*
X012853Y014038D01*
X012840Y014040D01*
X012824Y014041D01*
D02*
G37*
G36*
X012781Y011420D02*
X012725D01*
Y011294D01*
X012777D01*
X012781Y011294D01*
X012785D01*
X012790Y011295D01*
X012795Y011296D01*
X012806Y011298D01*
X012806D01*
X012808Y011299D01*
X012810Y011300D01*
X012814Y011302D01*
X012821Y011305D01*
X012828Y011311D01*
X012829Y011311D01*
X012830Y011312D01*
X012831Y011314D01*
X012833Y011317D01*
X012836Y011320D01*
X012838Y011323D01*
X012842Y011331D01*
Y011332D01*
X012843Y011333D01*
X012844Y011336D01*
X012845Y011339D01*
X012845Y011344D01*
X012846Y011348D01*
X012847Y011358D01*
Y011359D01*
Y011361D01*
Y011363D01*
X012846Y011367D01*
X012846Y011371D01*
X012845Y011375D01*
X012842Y011384D01*
Y011384D01*
X012842Y011386D01*
X012841Y011388D01*
X012839Y011391D01*
X012835Y011397D01*
X012829Y011404D01*
X012828Y011404D01*
X012827Y011405D01*
X012825Y011407D01*
X012823Y011408D01*
X012820Y011410D01*
X012816Y011412D01*
X012811Y011414D01*
X012806Y011416D01*
X012806D01*
X012804Y011416D01*
X012801Y011417D01*
X012797Y011418D01*
X012793Y011419D01*
X012787Y011420D01*
X012781Y011420D01*
D02*
G37*
G36*
X012501D02*
X012445D01*
Y011294D01*
X012497D01*
X012501Y011294D01*
X012505D01*
X012510Y011295D01*
X012515Y011296D01*
X012526Y011298D01*
X012526D01*
X012528Y011299D01*
X012530Y011300D01*
X012534Y011302D01*
X012541Y011305D01*
X012548Y011311D01*
X012549Y011311D01*
X012550Y011312D01*
X012551Y011314D01*
X012553Y011317D01*
X012556Y011320D01*
X012558Y011323D01*
X012562Y011331D01*
Y011332D01*
X012563Y011333D01*
X012564Y011336D01*
X012565Y011339D01*
X012565Y011344D01*
X012566Y011348D01*
X012567Y011358D01*
Y011359D01*
Y011361D01*
Y011363D01*
X012566Y011367D01*
X012566Y011371D01*
X012565Y011375D01*
X012562Y011384D01*
Y011384D01*
X012562Y011386D01*
X012561Y011388D01*
X012559Y011391D01*
X012555Y011397D01*
X012549Y011404D01*
X012548Y011404D01*
X012547Y011405D01*
X012545Y011407D01*
X012543Y011408D01*
X012540Y011410D01*
X012536Y011412D01*
X012531Y011414D01*
X012526Y011416D01*
X012526D01*
X012524Y011416D01*
X012521Y011417D01*
X012517Y011418D01*
X012513Y011419D01*
X012507Y011420D01*
X012501Y011420D01*
D02*
G37*
%LPD*%
D30*
X010896Y011791D02*
G03*
X010896Y011791I-000049J000000D01*
G01*
D31*
X012303Y014587D02*
G03*
X012303Y014587I-000118J000000D01*
G01*
D32*
X010630Y012559D02*
X011811D01*
Y012795D01*
X010630Y012559D02*
Y012795D01*
X011811D01*
X011004Y016319D02*
X012579D01*
X011004Y014193D02*
X012579D01*
X011004D02*
Y016319D01*
X012579Y014193D02*
Y016319D01*
D33*
X011212Y016133D02*
Y015633D01*
X011312Y015533D01*
X011512D01*
X011612Y015633D01*
Y016133D01*
X011812Y015533D02*
X012012D01*
X011912D01*
Y016133D01*
X011812Y016033D01*
M02*
