G04 Layer_Color=13813960*
%FSAX24Y24*%
%MOIN*%
G70*
G01*
G75*
%ADD33C,0.0100*%
%ADD45C,0.0050*%
%ADD46C,0.0080*%
D33*
X012283Y014675D02*
Y014175D01*
X012184Y014075D01*
X011984D01*
X011884Y014175D01*
Y014675D01*
X011284Y014075D02*
X011684D01*
X011284Y014475D01*
Y014575D01*
X011384Y014675D01*
X011584D01*
X011684Y014575D01*
D45*
X010311Y010130D02*
Y011130D01*
Y010130D02*
X013311D01*
Y011130D01*
X010311D02*
X013311D01*
D46*
X010336Y012671D02*
X010386Y012621D01*
Y012521D01*
X010336Y012471D01*
X010136D01*
X010086Y012521D01*
Y012621D01*
X010136Y012671D01*
X010336Y012971D02*
X010386Y012921D01*
Y012821D01*
X010336Y012771D01*
X010286D01*
X010236Y012821D01*
Y012921D01*
X010186Y012971D01*
X010136D01*
X010086Y012921D01*
Y012821D01*
X010136Y012771D01*
X010086Y013071D02*
X010386D01*
X010086Y013271D01*
X010386D01*
X010782Y012671D02*
X010832Y012621D01*
Y012521D01*
X010782Y012471D01*
X010582D01*
X010532Y012521D01*
Y012621D01*
X010582Y012671D01*
X010682D01*
Y012571D01*
X010832Y012771D02*
X010532D01*
Y012921D01*
X010582Y012971D01*
X010782D01*
X010832Y012921D01*
Y012771D01*
Y013221D02*
Y013121D01*
X010782Y013071D01*
X010582D01*
X010532Y013121D01*
Y013221D01*
X010582Y013271D01*
X010782D01*
X010832Y013221D01*
X010782Y013371D02*
X010832Y013421D01*
Y013521D01*
X010782Y013571D01*
X010582D01*
X010532Y013521D01*
Y013421D01*
X010582Y013371D01*
X010782D01*
X011227Y012671D02*
X011277Y012621D01*
Y012521D01*
X011227Y012471D01*
X011028D01*
X010978Y012521D01*
Y012621D01*
X011028Y012671D01*
X011128D01*
Y012571D01*
X011277Y012771D02*
X010978D01*
Y012921D01*
X011028Y012971D01*
X011227D01*
X011277Y012921D01*
Y012771D01*
Y013221D02*
Y013121D01*
X011227Y013071D01*
X011028D01*
X010978Y013121D01*
Y013221D01*
X011028Y013271D01*
X011227D01*
X011277Y013221D01*
X010978Y013571D02*
Y013371D01*
X011178Y013571D01*
X011227D01*
X011277Y013521D01*
Y013421D01*
X011227Y013371D01*
X012119Y012671D02*
X012169Y012621D01*
Y012521D01*
X012119Y012471D01*
X012069D01*
X012019Y012521D01*
Y012621D01*
X011969Y012671D01*
X011919D01*
X011869Y012621D01*
Y012521D01*
X011919Y012471D01*
X012119Y012971D02*
X012169Y012921D01*
Y012821D01*
X012119Y012771D01*
X011919D01*
X011869Y012821D01*
Y012921D01*
X011919Y012971D01*
X012169Y013071D02*
X011869D01*
Y013271D01*
X012169Y013371D02*
X011869D01*
X011969D01*
X012169Y013571D01*
X012019Y013421D01*
X011869Y013571D01*
X011673Y012671D02*
X011723Y012621D01*
Y012521D01*
X011673Y012471D01*
X011623D01*
X011573Y012521D01*
Y012621D01*
X011523Y012671D01*
X011473D01*
X011423Y012621D01*
Y012521D01*
X011473Y012471D01*
X011723Y012921D02*
Y012821D01*
X011673Y012771D01*
X011473D01*
X011423Y012821D01*
Y012921D01*
X011473Y012971D01*
X011673D01*
X011723Y012921D01*
X012565Y012671D02*
X012615Y012621D01*
Y012521D01*
X012565Y012471D01*
X012515D01*
X012465Y012521D01*
Y012621D01*
X012415Y012671D01*
X012365D01*
X012315Y012621D01*
Y012521D01*
X012365Y012471D01*
X012615Y012771D02*
Y012871D01*
Y012821D01*
X012315D01*
Y012771D01*
Y012871D01*
X013060Y012471D02*
X012860D01*
X012760Y012571D01*
X012860Y012671D01*
X013060D01*
Y012771D02*
X012760D01*
Y012921D01*
X012810Y012971D01*
X013010D01*
X013060Y012921D01*
Y012771D01*
Y013071D02*
X012760D01*
Y013221D01*
X012810Y013271D01*
X013010D01*
X013060Y013221D01*
Y013071D01*
X013456Y012671D02*
X013506Y012621D01*
Y012521D01*
X013456Y012471D01*
X013256D01*
X013206Y012521D01*
Y012621D01*
X013256Y012671D01*
X013356D01*
Y012571D01*
X013206Y012771D02*
X013506D01*
X013206Y012971D01*
X013506D01*
Y013071D02*
X013206D01*
Y013221D01*
X013256Y013271D01*
X013456D01*
X013506Y013221D01*
Y013071D01*
M02*
