G04 Layer_Physical_Order=2*
G04 Layer_Color=11436288*
%FSAX24Y24*%
%MOIN*%
G70*
G01*
G75*
%ADD18C,0.0138*%
%ADD20C,0.0177*%
%ADD22C,0.0197*%
%ADD23R,0.0650X0.0650*%
%ADD24C,0.0650*%
%ADD25C,0.0236*%
%ADD26C,0.0217*%
%ADD27C,0.0157*%
G04:AMPARAMS|DCode=28|XSize=30mil|YSize=70mil|CornerRadius=3mil|HoleSize=0mil|Usage=FLASHONLY|Rotation=180.000|XOffset=0mil|YOffset=0mil|HoleType=Round|Shape=RoundedRectangle|*
%AMROUNDEDRECTD28*
21,1,0.0300,0.0640,0,0,180.0*
21,1,0.0240,0.0700,0,0,180.0*
1,1,0.0060,-0.0120,0.0320*
1,1,0.0060,0.0120,0.0320*
1,1,0.0060,0.0120,-0.0320*
1,1,0.0060,-0.0120,-0.0320*
%
%ADD28ROUNDEDRECTD28*%
%ADD29C,0.0217*%
D18*
X011997Y014962D02*
X012036D01*
X011004Y014734D02*
X011181Y014911D01*
X010236Y011811D02*
Y012263D01*
X011004Y013032D01*
Y014734D01*
X010686Y011811D02*
Y012339D01*
X011299Y012953D01*
Y014624D01*
X012087Y015411D01*
X012036Y011811D02*
Y014500D01*
X011988Y014547D02*
X012036Y014500D01*
X011586Y011811D02*
Y014551D01*
X011997Y014962D01*
X012486Y011811D02*
Y012663D01*
X012687Y012864D01*
D20*
X010236Y011122D02*
X010258Y011143D01*
X013386Y011811D02*
Y012579D01*
X012936Y011361D02*
Y011811D01*
X012718Y011143D02*
X012936Y011361D01*
X013386Y012579D02*
Y015030D01*
X012411Y016004D02*
X013386Y015030D01*
X012285Y011143D02*
X012718D01*
D22*
X012264Y015709D02*
X012944Y015028D01*
Y012758D02*
Y015028D01*
X012936Y012749D02*
X012944Y012758D01*
X012936Y011811D02*
Y012749D01*
X010512Y013150D02*
Y014803D01*
X011417Y015709D01*
X012264D01*
D23*
X010811Y010630D02*
D03*
D24*
X011811D02*
D03*
X012811D02*
D03*
D25*
X010236Y011122D02*
D03*
X011181Y014911D02*
D03*
X012047Y014941D02*
D03*
X012411Y016004D02*
D03*
X012087Y015411D02*
D03*
D26*
X011988Y014547D02*
D03*
X010512Y013150D02*
D03*
X012285Y011143D02*
D03*
X013386Y012579D02*
D03*
D27*
X012687Y012864D02*
D03*
D28*
X010216Y011811D02*
D03*
X010666D02*
D03*
X011116D02*
D03*
X011566D02*
D03*
X012016D02*
D03*
X012466D02*
D03*
X012916D02*
D03*
X013366D02*
D03*
D29*
X010258Y011143D02*
X011406D01*
X011811Y010738D01*
Y010630D02*
Y010738D01*
M02*
