G04 Layer_Physical_Order=1*
G04 Layer_Color=25308*
%FSAX24Y24*%
%MOIN*%
G70*
G01*
G75*
%ADD10R,0.0315X0.0374*%
%ADD11R,0.0335X0.0276*%
%ADD12R,0.0276X0.0394*%
%ADD13R,0.0669X0.0315*%
%ADD14R,0.0315X0.0315*%
%ADD15R,0.0413X0.0394*%
%ADD16R,0.0354X0.0335*%
%ADD17O,0.0748X0.0236*%
%ADD18C,0.0138*%
%ADD19C,0.0118*%
%ADD20C,0.0177*%
%ADD21C,0.0157*%
%ADD22C,0.0197*%
%ADD23R,0.0650X0.0650*%
%ADD24C,0.0650*%
%ADD25C,0.0236*%
%ADD26C,0.0217*%
%ADD27C,0.0157*%
G36*
X013481Y010102D02*
X010102D01*
Y010886D01*
X010180Y010931D01*
X010236Y010920D01*
X010314Y010935D01*
X010379Y010979D01*
X010423Y011045D01*
X010438Y011122D01*
X010423Y011199D01*
X010419Y011205D01*
X010975Y011761D01*
X011015Y011820D01*
X011028Y011890D01*
X011083Y011939D01*
X011377D01*
Y011928D01*
X011443D01*
Y010846D01*
X011449Y010814D01*
X011416Y010736D01*
X011403Y010630D01*
X011416Y010524D01*
X011457Y010426D01*
X011522Y010341D01*
X011607Y010276D01*
X011705Y010235D01*
X011811Y010221D01*
X011917Y010235D01*
X012015Y010276D01*
X012100Y010341D01*
X012165Y010426D01*
X012206Y010524D01*
X012220Y010630D01*
X012206Y010736D01*
X012165Y010834D01*
X012100Y010919D01*
X012015Y010984D01*
X011917Y011025D01*
X011811Y011038D01*
X011805Y011038D01*
X011746Y011090D01*
Y011565D01*
X011963Y011565D01*
X011983Y011542D01*
X011991Y011488D01*
X011994Y011460D01*
X012003Y011438D01*
Y011254D01*
X012016Y011188D01*
X012054Y011132D01*
X012106Y011080D01*
X012108Y011070D01*
X012149Y011008D01*
X012212Y010966D01*
X012285Y010952D01*
X012359Y010966D01*
X012421Y011008D01*
X012463Y011070D01*
X012477Y011143D01*
X012463Y011217D01*
X012433Y011261D01*
X012454Y011318D01*
X012535Y011331D01*
X012649Y011216D01*
Y011001D01*
X012607Y010984D01*
X012522Y010919D01*
X012457Y010834D01*
X012416Y010736D01*
X012403Y010630D01*
X012416Y010524D01*
X012457Y010426D01*
X012522Y010341D01*
X012607Y010276D01*
X012705Y010235D01*
X012811Y010221D01*
X012917Y010235D01*
X013015Y010276D01*
X013100Y010341D01*
X013165Y010426D01*
X013206Y010524D01*
X013220Y010630D01*
X013206Y010736D01*
X013165Y010834D01*
X013100Y010919D01*
X013015Y010984D01*
X012973Y011001D01*
Y011283D01*
X012961Y011345D01*
X012925Y011398D01*
X012721Y011602D01*
Y012236D01*
X013205Y012720D01*
X013240Y012773D01*
X013252Y012835D01*
Y013129D01*
X013481D01*
Y010102D01*
D02*
G37*
G36*
X012854Y014304D02*
X013366D01*
X013402Y014311D01*
X013481Y014257D01*
Y013604D01*
X013068D01*
X012711Y013961D01*
Y014269D01*
X012747Y014296D01*
X012790Y014317D01*
X012854Y014304D01*
D02*
G37*
D10*
X011398Y013770D02*
D03*
X011890D02*
D03*
D11*
X012234Y012894D02*
D03*
Y013346D02*
D03*
D12*
X010846Y013150D02*
D03*
X011594D02*
D03*
Y012205D02*
D03*
X011220D02*
D03*
X010846D02*
D03*
D13*
X013091Y012028D02*
D03*
Y013366D02*
D03*
D14*
X012175Y011860D02*
D03*
Y012451D02*
D03*
D15*
X010866Y013780D02*
D03*
X010276D02*
D03*
D16*
X010295Y012697D02*
D03*
Y012185D02*
D03*
D17*
X010472Y016006D02*
D03*
Y015506D02*
D03*
Y015006D02*
D03*
Y014506D02*
D03*
X013110Y016006D02*
D03*
Y015506D02*
D03*
Y015006D02*
D03*
Y014506D02*
D03*
D18*
X013109Y010156D02*
X013386Y010433D01*
X010811Y010630D02*
X011285Y010156D01*
X012615D02*
X013109D01*
X011285D02*
X012007D01*
X012613Y010157D02*
X012615Y010156D01*
X012009Y010157D02*
X012613D01*
X012007Y010156D02*
X012009Y010157D01*
X010492Y015506D02*
X011030D01*
X010492Y015006D02*
X011087D01*
X012821D02*
X013130D01*
X011087D02*
X011181Y014911D01*
X011417Y014675D01*
Y013770D02*
Y014675D01*
X011220Y012205D02*
Y012461D01*
X010984Y012697D02*
X011220Y012461D01*
X010295Y012697D02*
X010984D01*
X011030Y015506D02*
X011988Y014547D01*
X010492Y016006D02*
X010982D01*
X012205Y013346D02*
X012274Y013415D01*
Y014715D01*
X012136Y012451D02*
X012244D01*
X010982Y016006D02*
X012274Y014715D01*
X012559Y013898D02*
X013091Y013366D01*
X012559Y013898D02*
Y014744D01*
X012821Y015006D01*
X011870Y013770D02*
X011901Y013739D01*
X011594Y010846D02*
Y012205D01*
Y010846D02*
X011811Y010630D01*
X011220Y012461D02*
Y013386D01*
X010827Y013780D02*
X011220Y013386D01*
D19*
X010374Y014388D02*
X010492Y014506D01*
X011901Y012685D02*
X012136Y012451D01*
X011901Y012685D02*
Y013739D01*
D20*
X010315Y012205D02*
X010846D01*
X010315Y013346D02*
Y013780D01*
X010512Y013150D02*
X010846D01*
X010315Y013346D02*
X010512Y013150D01*
X010374Y013780D02*
Y014388D01*
X012175Y011254D02*
Y011860D01*
X012244Y012894D02*
X012274Y012864D01*
X012687D01*
X012175Y011254D02*
X012285Y011143D01*
D21*
X012171Y015506D02*
X013130D01*
X013091Y012028D02*
Y012283D01*
X012811Y010630D02*
Y011283D01*
X012411Y016004D02*
X013128D01*
X012087Y015421D02*
X012171Y015506D01*
X012087Y015411D02*
Y015421D01*
X010811Y010455D02*
Y010630D01*
X013091Y011909D02*
Y012028D01*
Y011909D02*
X013386Y011614D01*
X012559Y011535D02*
X012811Y011283D01*
X012559Y011535D02*
Y012303D01*
X013091Y012835D01*
Y013366D01*
X013386Y010433D02*
Y011614D01*
X013091Y012283D02*
X013386Y012579D01*
D22*
X010236Y011122D02*
Y011280D01*
X010846Y011890D01*
Y012205D01*
X010811Y010630D02*
Y010949D01*
X011220Y011358D01*
Y012205D01*
D23*
X010811Y010630D02*
D03*
D24*
X011811D02*
D03*
X012811D02*
D03*
D25*
X010236Y011122D02*
D03*
X011181Y014911D02*
D03*
X012047Y014941D02*
D03*
X012411Y016004D02*
D03*
X012087Y015411D02*
D03*
D26*
X011988Y014547D02*
D03*
X010512Y013150D02*
D03*
X012285Y011143D02*
D03*
X013386Y012579D02*
D03*
D27*
X012687Y012864D02*
D03*
M02*
